<svg width="16" height="16" fill="none" xmlns="http://www.w3.org/2000/svg"><path d="m1.667 14.333 3.7-1.422c.236-.091.354-.137.465-.196.098-.053.192-.114.28-.183.1-.077.189-.166.368-.345L14 4.667A1.886 1.886 0 1 0 11.333 2l-7.52 7.52c-.179.18-.268.269-.345.368-.069.088-.13.182-.183.28-.059.11-.104.23-.195.466l-1.423 3.7Zm0 0 1.372-3.567c.098-.255.147-.383.231-.441a.333.333 0 0 1 .253-.054c.1.02.197.116.39.31l1.507 1.505c.193.194.29.29.309.391a.333.333 0 0 1-.054.253c-.058.084-.186.133-.441.231l-3.567 1.372Z" stroke="#fff" stroke-opacity=".5" stroke-width="1.3" stroke-linecap="round" stroke-linejoin="round"/></svg>